<?xml version="1.0" encoding="UTF-8"?>
<svg id="Ebene_2" xmlns="http://www.w3.org/2000/svg" viewBox="0 0 356.47 268.51">
    <defs>
        <style>.cls-1{fill:#af8a3c;}</style>
    </defs>
    <g id="Bg">
        <polygon class="cls-1"
                 points="178.24 57.15 178.11 57.33 134.7 118.97 91.38 180.49 90.9 181.17 90.88 181.15 90.33 180.6 0 90.27 32 36.73 53.95 0 138.26 0 163.95 36.73 178.24 57.15"/>
        <polygon class="cls-1"
                 points="356.47 90.27 265.57 181.17 265.09 180.49 221.77 118.97 178.36 57.33 178.24 57.15 192.52 36.73 218.21 0 302.52 0 324.47 36.73 354.82 87.51 356.47 90.27"/>
        <polyline class="cls-1"
                  points="90.33 180.6 0 90.27 32 36.73 53.95 0 138.26 0 163.95 36.73 178.24 57.15 178.11 57.33 134.7 118.97 91.38 180.49"/>
        <polygon class="cls-1"
                 points="265.57 181.17 178.24 268.51 90.9 181.17 91.38 180.49 134.7 118.97 178.11 57.33 178.24 57.15 178.36 57.33 221.77 118.97 265.09 180.49 265.57 181.17"/>
    </g>
</svg>